# xmcd
#
# Track frame offsets: 
#        150
#        19916
#        37505
#        52244
#        73681
#        93302
#        114059
#        132385
#        152069
#        168007
#        189746
#        207359
#
# Disc length: 2884 seconds
#
# Revision: 0
# Processed by: cddbd v1.5.2PL0 Copyright (c) Steve Scherf et al.
# Submitted via: ExactAudioCopy v1.3
#
DISCID=9a0b420c
DTITLE=Frank Bey - Blues In The Pocket
DYEAR=2007
DGENRE=Blues
TTITLE0=Midnight and Day
TTITLE1=Blues Comes Knockin'
TTITLE2=Bed For My Soul
TTITLE3=Yesterday's Dreams
TTITLE4=Mojo Blues
TTITLE5=City Boy
TTITLE6=Blues In The Pocket
TTITLE7=Best That I Can
TTITLE8=Drivin' With My Eyes Closed
TTITLE9=A Change Is Gonna Come
TTITLE10=Dock Of The Bay
TTITLE11=New Kinda Blues
EXTD=
EXTT0=
EXTT1=
EXTT2=
EXTT3=
EXTT4=
EXTT5=
EXTT6=
EXTT7=
EXTT8=
EXTT9=
EXTT10=
EXTT11=
PLAYORDER=
